<svg xmlns="http://www.w3.org/2000/svg" viewBox="0 0 16 16">
    <g fill="#bebebe">
        <path d="M5.6 0v2H3.2v14h9.6V2h-2.4V0zm4 3-.8 5h2.4l-4.8 7 .8-5H4.8z" opacity=".4"/>
        <path d="M3.2 11v5h9.6v-5H9.142L6.4 15l.64-4z"/>
    </g>
    <path d="M2.014 13.497v-2.49h2.38c1.887 0 2.381.007 2.38.034 0 .019-.176.915-.393 1.992A96 96 0 0 0 5.998 15c.004.005.779-.889 1.72-1.985l1.713-1.995 2.278-.007 2.277-.007v4.98H2.014Z" style="fill:#6080f4;stroke-width:.0272109;fill-opacity:1" transform="matrix(.8 0 0 1 1.6 0)"/>
</svg>
