<svg xmlns="http://www.w3.org/2000/svg" viewBox="0 0 16 16">
    <path d="M5 0v2H2v14h12V2h-3V0zm5 3L9 8h3l-6 7 1-5H4z" style="fill:#bebebe;opacity:.4" transform="matrix(.8 0 0 1 1.6 0)"/>
    <path d="M2 10v6h12v-6h-3.719L6 15l1-5H2" style="fill:#bebebe" transform="matrix(.8 0 0 1 1.6 0)"/>
    <path d="M2.014 12.993V10h4.971l-.499 2.495A127 127 0 0 0 5.998 15c.006.006.976-1.116 2.156-2.494L10.3 10h1.844L13.986 10v5.986H2.014Z" style="fill:#8aaaf8;stroke-width:.0272109;fill-opacity:1" transform="matrix(.8 0 0 1 1.6 0)"/>
</svg>
