<svg xmlns="http://www.w3.org/2000/svg" viewBox="0 0 16 16">
    <path d="M5 0v2H2v14h12V2h-3V0zm6.125 5L13 6.844 6.75 13C5.468 11.738 4.282 10.575 3 9.312l1.875-1.844L6.75 9.312l4.375-4.313z" style="fill:#bebebe;fill-opacity:1" transform="matrix(.8 0 0 1 1.6 0)"/>
    <path d="M2.014 8.993V2h2.993V.014h5.986V2h2.993v13.986H2.014Zm9.49-.653a89 89 0 0 0 1.503-1.498c0-.01-.423-.432-.94-.938l-.941-.92-.264.258c-.145.142-1.13 1.112-2.187 2.156L6.75 9.297l-.923-.914c-.507-.502-.934-.914-.948-.914-.036 0-1.891 1.825-1.881 1.85.004.012.85.85 1.88 1.863l1.872 1.843 1.624-1.603z" style="fill:#00cc10;stroke-width:.0272109;fill-opacity:1" transform="matrix(.8 0 0 1 1.6 0)"/>
    <path d="M2.014 8.993V2h2.993V.014h5.986V2h2.993v13.986H2.014Zm9.72-.867c.7-.696 1.273-1.278 1.273-1.293 0-.032-1.848-1.853-1.88-1.853-.012 0-.723.691-1.581 1.537L7.368 8.664l-.618.61-.914-.903c-.502-.496-.931-.902-.953-.902-.073 0-1.89 1.788-1.89 1.86 0 .007.846.848 1.88 1.868l1.879 1.854 1.855-1.83c1.02-1.006 2.428-2.4 3.128-3.095" style="fill:#22d43a;fill-opacity:1;stroke-width:.0272109" transform="matrix(.8 0 0 1 1.6 0)"/>
</svg>
