<svg xmlns="http://www.w3.org/2000/svg" viewBox="0 0 16 16">
    <g fill="#bebebe">
        <path d="M5.6 0v2H3.2v14h9.6V2h-2.4V0zm4 3-.8 5h2.4l-4.8 7 .8-5H4.8z" opacity=".4"/>
        <path d="M3.2 8v8h9.6V8h-1.6l-4.8 7 .8-5H4.8l1.372-2z"/>
    </g>
    <path d="M2.014 12V8.014h1.823c1.002 0 1.823.006 1.823.014 0 .007-.375.451-.834.986l-.834.972 1.496.007L6.985 10l-.499 2.495a138 138 0 0 0-.489 2.504c.006.006 1.36-1.564 3.009-3.487l2.998-3.498h1.982v7.972H2.014Z" style="fill:#c8d8fc;stroke-width:.0272109;fill-opacity:1" transform="matrix(.8 0 0 1 1.6 0)"/>
</svg>
