<svg xmlns="http://www.w3.org/2000/svg" viewBox="0 0 16 16">
    <g fill="#bebebe">
        <path d="M5.6 0v2H3.2v14h9.6V2h-2.4V0zm4 3-.8 5h2.4l-4.8 7 .8-5H4.8z" opacity=".4"/>
        <path d="M3.2 2v14h9.6V2zm6.4 1-.8 5h2.4l-4.8 7 .8-5H4.8z"/>
    </g>
    <path d="M2.014 8.993V2h11.972v13.986H2.014Zm6.99 2.52A520 520 0 0 0 12 8.002c0-.01-.672-.017-1.493-.017H9.015L9.5 5.558l.5-2.493c.01-.035.005-.06-.01-.054a419 419 0 0 0-3.009 3.492L3.996 9.986l1.495.007L6.985 10 6.5 12.43l-.502 2.503c-.009.041-.01.075-.002.075.007 0 1.361-1.573 3.009-3.495" style="fill:#6ee89a;stroke-width:.0272109;fill-opacity:1" transform="matrix(.8 0 0 1 1.6 0)"/>
</svg>
