<svg xmlns="http://www.w3.org/2000/svg" viewBox="0 0 16 16">
    <g fill="#bebebe">
        <path d="M5.6 0v2H3.2v14h9.6V2h-2.4V0zm4 3-.8 5h2.4l-4.8 7 .8-5H4.8z" opacity=".4"/>
        <path d="M3.2 3v13h9.6V3H9.6l-.8 5h2.4l-4.8 7 .8-5H4.8l4.8-7z"/>
    </g>
    <path d="M2.014 9.497v-6.49h3.972c2.185 0 3.973.005 3.973.011s-1.342 1.577-2.981 3.49L3.996 9.986l1.495.007L6.985 10l-.499 2.495a138 138 0 0 0-.489 2.504C6.01 15.011 12 8.027 12 8.002c0-.008-.672-.016-1.493-.016H9.015L9.5 5.558c.267-1.336.492-2.456.5-2.49l.015-.061h3.971v12.98H2.014Z" style="fill:#b4f2d0;stroke-width:.0272109;fill-opacity:1" transform="matrix(.8 0 0 1 1.6 0)"/>
</svg>
