<svg xmlns="http://www.w3.org/2000/svg" viewBox="0 0 16 16">
    <g fill="#bebebe">
        <path d="M5.6 0v2H3.2v14h9.6V2h-2.4V0zm4 3-.8 5h2.4l-4.8 7 .8-5H4.8z" opacity=".4"/>
        <path d="M3.2 6v10h9.6V6H9.12L8.8 8h2.4l-4.8 7 .8-5H4.8l2.742-4z"/>
    </g>
    <path d="M2.014 10.993V6h2.698c2.567 0 2.696.002 2.655.048L5.661 8.04 3.996 9.986l1.495.007L6.985 10l-.499 2.495a138 138 0 0 0-.489 2.504C6.01 15.011 12 8.027 12 8.002c0-.008-.672-.016-1.493-.016H9.015l.186-.932c.102-.512.192-.96.2-.993L9.416 6h4.57v9.986H2.014Z" style="fill:#fff;stroke-width:.0272109" transform="matrix(.8 0 0 1 1.6 0)"/>
</svg>
