<svg xmlns="http://www.w3.org/2000/svg" viewBox="0 0 16 16">
    <g fill="#bebebe">
        <path d="M5.6 0v2H3.2v14h9.6V2h-2.4V0zm4 3-.8 5h2.4l-4.8 7 .8-5H4.8z" opacity=".4"/>
        <path d="M3.2 5v11h9.6V5H9.28L8.8 8h2.4l-4.8 7 .8-5H4.8l3.428-5z"/>
    </g>
    <path d="M2.014 10.503V5.02H8.25l-.135.157L5.987 7.66 3.996 9.986l1.494.007L6.985 10l-.499 2.495a138 138 0 0 0-.489 2.504C6.01 15.011 12 8.027 12 8.002c0-.008-.672-.016-1.493-.016H9.015l.268-1.34c.147-.737.28-1.404.297-1.483l.03-.143h4.376v10.966H2.014Z" style="fill:#dffaf0;stroke-width:.0272109;fill-opacity:1" transform="matrix(.8 0 0 1 1.6 0)"/>
</svg>
