<svg xmlns="http://www.w3.org/2000/svg" viewBox="0 0 16 16">
    <path d="M5 0v2H2v14h12V2h-3V0zm5 3L9 8h3l-6 7 1-5H4z" style="fill:#bebebe" transform="matrix(.8 0 0 1 1.6 0)"/>
    <path d="M2.014 8.993V2h2.993V.014h5.986V2h2.993v13.986H2.014Zm7.01 2.502c1.63-1.901 2.966-3.468 2.971-3.482.006-.017-.54-.027-1.485-.027H9.015l.497-2.483c.273-1.365.491-2.488.485-2.494-.015-.016.294-.374-3.032 3.508l-2.973 3.47 1.497.006L6.985 10 6.5 12.43l-.503 2.51c-.015.07-.012.076.023.046.023-.019 1.375-1.59 3.004-3.49" style="fill:#22d43a;stroke-width:.0272109" transform="matrix(.8 0 0 1 1.6 0)"/>
</svg>
